<svg xmlns="http://www.w3.org/2000/svg" viewBox="0 0 2000 1000">
<defs>
  <filter id="gf" x="-5%" y="-5%" width="110%" height="110%">
    <feGaussianBlur stdDeviation="5" result="b"/>
    <feColorMatrix in="b" type="matrix"
      values="0 0 0 0 0.12  0 0 0 0 0.52  0 0 0 0 0.25  0 0 0 0.65 0" result="g"/>
    <feMerge><feMergeNode in="g"/><feMergeNode in="SourceGraphic"/></feMerge>
  </filter>
</defs>
<!-- glow -->
<g filter="url(#gf)" fill="rgba(20,60,32,0.45)" stroke="none">
  <path d="M 216.7,215.5 L 333.3,215.5 L 405.6,197.5 L 472.2,206.7 L 533.3,197.5 L 666.7,76.6 L 638.9,55.3 L 638.9,141.5 L 650.0,206.7 L 711.1,239.3 L 644.4,284.8 L 644.4,301.2 L 694.4,330.3 L 705.6,351.7 L 633.3,363.6 L 611.1,367.4 L 588.9,378.6 L 583.3,392.7 L 566.7,402.8 L 550.0,412.6 L 555.6,425.2 L 550.0,428.2 L 544.4,431.3 L 500.0,434.3 L 511.1,449.2 L 511.1,457.8 L 516.7,460.7 L 572.2,477.7 L 561.1,474.9 L 577.8,474.9 L 572.2,480.5 L 538.9,477.7 L 527.8,472.1 L 533.3,469.3 L 500.0,460.7 L 488.9,457.8 L 483.3,455.0 L 466.7,446.2 L 455.6,437.3 L 405.6,431.3 L 388.9,412.6 L 350.0,406.1 L 322.2,389.2 L 316.7,385.7 L 311.1,351.7 L 294.4,339.1 L 272.2,321.1 L 238.9,301.2 L 216.7,290.4 L 83.3,272.9 L 66.7,260.2 L 88.9,215.5 L 216.7,215.5 Z"/>
  <path d="M 100.0,316.3 L 161.1,290.4 L 216.7,290.4 L 216.7,266.7 L 83.3,253.5 L 94.4,223.8 L 55.6,278.9 L 94.4,316.3 L 100.0,316.3 Z"/>
  <path d="M 900.0,166.2 L 861.1,55.3 L 738.9,55.3 L 622.2,141.5 L 622.2,197.5 L 705.6,253.5 L 855.6,239.3 L 900.0,166.2 Z"/>
  <path d="M 600.0,466.4 L 655.6,469.3 L 666.7,477.7 L 711.1,488.9 L 722.2,494.4 L 722.2,500.0 L 783.3,508.3 L 805.6,513.9 L 794.4,527.9 L 783.3,542.2 L 761.1,565.7 L 733.3,581.1 L 711.1,597.2 L 683.3,607.3 L 683.3,614.3 L 638.9,640.3 L 622.2,669.7 L 622.2,678.9 L 627.8,688.6 L 800.0,674.2 L 683.3,614.3 L 711.1,600.5 L 772.2,562.7 L 788.9,536.4 L 805.6,513.9 L 727.8,500.0 L 705.6,486.1 L 655.6,472.1 L 600.0,466.4 Z"/>
  <path d="M 966.7,392.7 L 950.0,385.7 L 950.0,371.2 L 988.9,363.6 L 1000.0,363.6 L 1016.7,367.4 L 1016.7,374.9 L 1000.0,389.2 L 1033.3,392.7 L 1066.7,389.2 L 1077.8,385.7 L 1088.9,374.9 L 1111.1,378.6 L 1133.3,371.2 L 1133.3,378.6 L 1122.2,389.2 L 1127.8,385.7 L 1144.4,374.9 L 1155.6,371.2 L 1161.1,363.6 L 1166.7,355.8 L 1205.6,355.8 L 1200.0,363.6 L 1161.1,371.2 L 1161.1,374.9 L 1155.6,363.6 L 1133.3,351.7 L 1122.2,351.7 L 1100.0,347.6 L 1100.0,343.4 L 1077.8,339.1 L 1077.8,334.8 L 1077.8,330.3 L 1055.6,321.1 L 1044.4,316.3 L 1027.8,301.2 L 1027.8,295.9 L 1027.8,278.9 L 1077.8,260.2 L 1122.2,223.8 L 1144.4,215.5 L 1155.6,215.5 L 1166.7,223.8 L 1144.4,239.3 L 1138.9,260.2 L 1138.9,278.9 L 1122.2,290.4 L 1072.2,301.2 L 1055.6,321.1 L 1027.8,325.8 L 1011.1,334.8 L 1011.1,347.6 L 1027.8,355.8 L 1044.4,363.6 L 1027.8,367.4 L 1016.7,367.4 L 966.7,392.7 Z"/>
  <path d="M 1027.8,301.2 L 1027.8,278.9 L 1072.2,260.2 L 1111.1,223.8 L 1144.4,215.5 L 1155.6,223.8 L 1100.0,239.3 L 1083.3,260.2 L 1044.4,278.9 L 1038.9,301.2 L 1027.8,301.2 Z"/>
  <path d="M 994.4,339.1 L 1005.6,334.8 L 1011.1,325.8 L 1011.1,316.3 L 988.9,301.2 L 977.8,295.9 L 966.7,301.2 L 972.2,306.4 L 977.8,316.3 L 983.3,325.8 L 988.9,334.8 L 994.4,339.1 Z"/>
  <path d="M 877.8,272.9 L 866.7,260.2 L 872.2,253.5 L 900.0,253.5 L 927.8,266.7 L 922.2,272.9 L 877.8,272.9 Z"/>
  <path d="M 1055.6,389.2 L 1066.7,389.2 L 1177.8,402.8 L 1183.3,412.6 L 1205.6,437.3 L 1227.8,457.8 L 1238.9,469.3 L 1283.3,469.3 L 1244.4,466.4 L 1233.3,491.7 L 1233.3,500.0 L 1222.2,513.9 L 1222.2,527.9 L 1222.2,533.6 L 1205.6,547.9 L 1183.3,574.8 L 1138.9,600.5 L 1111.1,603.9 L 1083.3,587.4 L 1083.3,574.8 L 1077.8,562.7 L 1066.7,550.8 L 1066.7,542.2 L 1083.3,530.7 L 1027.8,516.7 L 983.3,500.0 L 944.4,491.7 L 944.4,488.9 L 983.3,488.9 L 1000.0,486.1 L 1027.8,486.1 L 1083.3,472.1 L 1083.3,460.7 L 1072.2,457.8 L 1027.8,457.8 L 905.6,469.3 L 905.6,460.7 L 911.1,460.7 L 911.1,455.0 L 905.6,443.3 L 916.7,431.3 L 944.4,431.3 L 972.2,437.3 L 1027.8,431.3 L 1055.6,431.3 L 1055.6,412.6 L 1055.6,406.1 L 1055.6,396.1 L 1055.6,389.2 Z"/>
  <path d="M 1333.3,154.3 L 1500.0,141.5 L 1611.1,177.3 L 1722.2,206.7 L 1783.3,223.8 L 1983.3,246.6 L 1983.3,266.7 L 1900.0,290.4 L 1788.9,311.4 L 1788.9,339.1 L 1788.9,359.7 L 1744.4,367.4 L 1677.8,385.7 L 1672.2,396.1 L 1666.7,402.8 L 1666.7,418.9 L 1666.7,434.3 L 1611.1,443.3 L 1600.0,457.8 L 1611.1,463.6 L 1583.3,472.1 L 1583.3,486.1 L 1583.3,491.7 L 1577.8,497.2 L 1583.3,502.8 L 1555.6,491.7 L 1555.6,486.1 L 1544.4,477.7 L 1555.6,472.1 L 1555.6,457.8 L 1555.6,449.2 L 1555.6,437.3 L 1522.2,443.3 L 1494.4,431.3 L 1505.6,437.3 L 1444.4,457.8 L 1444.4,466.4 L 1433.3,477.7 L 1422.2,472.1 L 1361.1,443.3 L 1333.3,431.3 L 1327.8,437.3 L 1316.7,437.3 L 1316.7,428.2 L 1311.1,422.1 L 1277.8,418.9 L 1250.0,437.3 L 1250.0,460.7 L 1244.4,466.4 L 1205.6,437.3 L 1200.0,406.1 L 1200.0,389.2 L 1222.2,385.7 L 1250.0,371.2 L 1288.9,371.2 L 1305.6,378.6 L 1333.3,351.7 L 1333.3,330.3 L 1333.3,316.3 L 1333.3,290.4 L 1277.8,260.2 L 1333.3,223.8 L 1333.3,154.3 Z"/>
  <path d="M 1377.8,434.3 L 1372.2,418.9 L 1411.1,406.1 L 1422.2,399.5 L 1505.6,437.3 L 1455.6,455.0 L 1433.3,474.9 L 1438.9,474.9 L 1444.4,463.6 L 1488.9,437.3 L 1511.1,434.3 L 1500.0,425.2 L 1377.8,434.3 Z"/>
  <path d="M 1722.2,406.1 L 1722.2,399.5 L 1755.6,392.7 L 1777.8,385.7 L 1783.3,374.9 L 1794.4,367.4 L 1805.6,363.6 L 1794.4,363.6 L 1777.8,371.2 L 1777.8,385.7 L 1766.7,392.7 L 1727.8,402.8 L 1722.2,406.1 Z"/>
  <path d="M 1655.6,472.1 L 1677.8,466.4 L 1677.8,455.0 L 1677.8,449.2 L 1672.2,460.7 L 1694.4,472.1 L 1700.0,480.5 L 1700.0,483.3 L 1688.9,477.7 L 1661.1,472.1 L 1655.6,472.1 Z"/>
  <path d="M 1650.0,480.5 L 1661.1,486.1 L 1655.6,494.4 L 1605.6,500.0 L 1633.3,511.1 L 1644.4,513.9 L 1638.9,508.3 L 1605.6,497.2 L 1633.3,488.9 L 1650.0,480.5 Z"/>
  <path d="M 1527.8,483.3 L 1544.4,491.7 L 1583.3,511.1 L 1588.9,513.9 L 1588.9,516.7 L 1572.2,505.6 L 1544.4,491.7 L 1527.8,483.3 Z"/>
  <path d="M 1588.9,516.7 L 1594.4,519.5 L 1622.2,522.3 L 1638.9,525.1 L 1638.9,525.1 L 1611.1,522.3 L 1588.9,516.7 Z"/>
  <path d="M 1755.6,545.0 L 1722.2,542.2 L 1677.8,547.9 L 1633.3,562.7 L 1633.3,574.8 L 1638.9,593.9 L 1650.0,603.9 L 1777.8,603.9 L 1811.1,614.3 L 1816.7,617.8 L 1822.2,614.3 L 1850.0,593.9 L 1850.0,581.1 L 1844.4,568.7 L 1822.2,556.7 L 1811.1,547.9 L 1800.0,539.3 L 1755.6,533.6 L 1755.6,539.3 L 1755.6,545.0 Z"/>
  <path d="M 1966.7,603.9 L 1966.7,607.3 L 1972.2,625.1 L 1988.9,614.3 L 1988.9,610.8 L 1961.1,600.5 L 1966.7,603.9 Z"/>
  <path d="M 1933.3,636.4 L 1933.3,644.2 L 1955.6,636.4 L 1955.6,632.6 L 1933.3,636.4 Z"/>
  <path d="M 1272.2,533.6 L 1272.2,539.3 L 1244.4,550.8 L 1244.4,556.7 L 1244.4,568.7 L 1244.4,574.8 L 1261.1,571.8 L 1277.8,568.7 L 1277.8,550.8 L 1272.2,533.6 Z"/>
  <path d="M 1444.4,483.3 L 1450.0,480.5 L 1450.0,474.9 L 1444.4,472.1 L 1433.3,477.7 L 1444.4,483.3 Z"/>
  <path d="M 1666.7,437.3 L 1677.8,428.2 L 1672.2,428.2 L 1666.7,434.3 L 1666.7,437.3 Z"/>
</g>
<!-- fill -->
<g fill="rgba(11,36,19,0.97)" stroke="rgba(38,140,65,0.58)" stroke-width="1.4" stroke-linejoin="round">
  <path d="M 216.7,215.5 L 333.3,215.5 L 405.6,197.5 L 472.2,206.7 L 533.3,197.5 L 666.7,76.6 L 638.9,55.3 L 638.9,141.5 L 650.0,206.7 L 711.1,239.3 L 644.4,284.8 L 644.4,301.2 L 694.4,330.3 L 705.6,351.7 L 633.3,363.6 L 611.1,367.4 L 588.9,378.6 L 583.3,392.7 L 566.7,402.8 L 550.0,412.6 L 555.6,425.2 L 550.0,428.2 L 544.4,431.3 L 500.0,434.3 L 511.1,449.2 L 511.1,457.8 L 516.7,460.7 L 572.2,477.7 L 561.1,474.9 L 577.8,474.9 L 572.2,480.5 L 538.9,477.7 L 527.8,472.1 L 533.3,469.3 L 500.0,460.7 L 488.9,457.8 L 483.3,455.0 L 466.7,446.2 L 455.6,437.3 L 405.6,431.3 L 388.9,412.6 L 350.0,406.1 L 322.2,389.2 L 316.7,385.7 L 311.1,351.7 L 294.4,339.1 L 272.2,321.1 L 238.9,301.2 L 216.7,290.4 L 83.3,272.9 L 66.7,260.2 L 88.9,215.5 L 216.7,215.5 Z"/>
  <path d="M 100.0,316.3 L 161.1,290.4 L 216.7,290.4 L 216.7,266.7 L 83.3,253.5 L 94.4,223.8 L 55.6,278.9 L 94.4,316.3 L 100.0,316.3 Z"/>
  <path d="M 900.0,166.2 L 861.1,55.3 L 738.9,55.3 L 622.2,141.5 L 622.2,197.5 L 705.6,253.5 L 855.6,239.3 L 900.0,166.2 Z"/>
  <path d="M 600.0,466.4 L 655.6,469.3 L 666.7,477.7 L 711.1,488.9 L 722.2,494.4 L 722.2,500.0 L 783.3,508.3 L 805.6,513.9 L 794.4,527.9 L 783.3,542.2 L 761.1,565.7 L 733.3,581.1 L 711.1,597.2 L 683.3,607.3 L 683.3,614.3 L 638.9,640.3 L 622.2,669.7 L 622.2,678.9 L 627.8,688.6 L 800.0,674.2 L 683.3,614.3 L 711.1,600.5 L 772.2,562.7 L 788.9,536.4 L 805.6,513.9 L 727.8,500.0 L 705.6,486.1 L 655.6,472.1 L 600.0,466.4 Z"/>
  <path d="M 966.7,392.7 L 950.0,385.7 L 950.0,371.2 L 988.9,363.6 L 1000.0,363.6 L 1016.7,367.4 L 1016.7,374.9 L 1000.0,389.2 L 1033.3,392.7 L 1066.7,389.2 L 1077.8,385.7 L 1088.9,374.9 L 1111.1,378.6 L 1133.3,371.2 L 1133.3,378.6 L 1122.2,389.2 L 1127.8,385.7 L 1144.4,374.9 L 1155.6,371.2 L 1161.1,363.6 L 1166.7,355.8 L 1205.6,355.8 L 1200.0,363.6 L 1161.1,371.2 L 1161.1,374.9 L 1155.6,363.6 L 1133.3,351.7 L 1122.2,351.7 L 1100.0,347.6 L 1100.0,343.4 L 1077.8,339.1 L 1077.8,334.8 L 1077.8,330.3 L 1055.6,321.1 L 1044.4,316.3 L 1027.8,301.2 L 1027.8,295.9 L 1027.8,278.9 L 1077.8,260.2 L 1122.2,223.8 L 1144.4,215.5 L 1155.6,215.5 L 1166.7,223.8 L 1144.4,239.3 L 1138.9,260.2 L 1138.9,278.9 L 1122.2,290.4 L 1072.2,301.2 L 1055.6,321.1 L 1027.8,325.8 L 1011.1,334.8 L 1011.1,347.6 L 1027.8,355.8 L 1044.4,363.6 L 1027.8,367.4 L 1016.7,367.4 L 966.7,392.7 Z"/>
  <path d="M 1027.8,301.2 L 1027.8,278.9 L 1072.2,260.2 L 1111.1,223.8 L 1144.4,215.5 L 1155.6,223.8 L 1100.0,239.3 L 1083.3,260.2 L 1044.4,278.9 L 1038.9,301.2 L 1027.8,301.2 Z"/>
  <path d="M 994.4,339.1 L 1005.6,334.8 L 1011.1,325.8 L 1011.1,316.3 L 988.9,301.2 L 977.8,295.9 L 966.7,301.2 L 972.2,306.4 L 977.8,316.3 L 983.3,325.8 L 988.9,334.8 L 994.4,339.1 Z"/>
  <path d="M 877.8,272.9 L 866.7,260.2 L 872.2,253.5 L 900.0,253.5 L 927.8,266.7 L 922.2,272.9 L 877.8,272.9 Z"/>
  <path d="M 1055.6,389.2 L 1066.7,389.2 L 1177.8,402.8 L 1183.3,412.6 L 1205.6,437.3 L 1227.8,457.8 L 1238.9,469.3 L 1283.3,469.3 L 1244.4,466.4 L 1233.3,491.7 L 1233.3,500.0 L 1222.2,513.9 L 1222.2,527.9 L 1222.2,533.6 L 1205.6,547.9 L 1183.3,574.8 L 1138.9,600.5 L 1111.1,603.9 L 1083.3,587.4 L 1083.3,574.8 L 1077.8,562.7 L 1066.7,550.8 L 1066.7,542.2 L 1083.3,530.7 L 1027.8,516.7 L 983.3,500.0 L 944.4,491.7 L 944.4,488.9 L 983.3,488.9 L 1000.0,486.1 L 1027.8,486.1 L 1083.3,472.1 L 1083.3,460.7 L 1072.2,457.8 L 1027.8,457.8 L 905.6,469.3 L 905.6,460.7 L 911.1,460.7 L 911.1,455.0 L 905.6,443.3 L 916.7,431.3 L 944.4,431.3 L 972.2,437.3 L 1027.8,431.3 L 1055.6,431.3 L 1055.6,412.6 L 1055.6,406.1 L 1055.6,396.1 L 1055.6,389.2 Z"/>
  <path d="M 1333.3,154.3 L 1500.0,141.5 L 1611.1,177.3 L 1722.2,206.7 L 1783.3,223.8 L 1983.3,246.6 L 1983.3,266.7 L 1900.0,290.4 L 1788.9,311.4 L 1788.9,339.1 L 1788.9,359.7 L 1744.4,367.4 L 1677.8,385.7 L 1672.2,396.1 L 1666.7,402.8 L 1666.7,418.9 L 1666.7,434.3 L 1611.1,443.3 L 1600.0,457.8 L 1611.1,463.6 L 1583.3,472.1 L 1583.3,486.1 L 1583.3,491.7 L 1577.8,497.2 L 1583.3,502.8 L 1555.6,491.7 L 1555.6,486.1 L 1544.4,477.7 L 1555.6,472.1 L 1555.6,457.8 L 1555.6,449.2 L 1555.6,437.3 L 1522.2,443.3 L 1494.4,431.3 L 1505.6,437.3 L 1444.4,457.8 L 1444.4,466.4 L 1433.3,477.7 L 1422.2,472.1 L 1361.1,443.3 L 1333.3,431.3 L 1327.8,437.3 L 1316.7,437.3 L 1316.7,428.2 L 1311.1,422.1 L 1277.8,418.9 L 1250.0,437.3 L 1250.0,460.7 L 1244.4,466.4 L 1205.6,437.3 L 1200.0,406.1 L 1200.0,389.2 L 1222.2,385.7 L 1250.0,371.2 L 1288.9,371.2 L 1305.6,378.6 L 1333.3,351.7 L 1333.3,330.3 L 1333.3,316.3 L 1333.3,290.4 L 1277.8,260.2 L 1333.3,223.8 L 1333.3,154.3 Z"/>
  <path d="M 1377.8,434.3 L 1372.2,418.9 L 1411.1,406.1 L 1422.2,399.5 L 1505.6,437.3 L 1455.6,455.0 L 1433.3,474.9 L 1438.9,474.9 L 1444.4,463.6 L 1488.9,437.3 L 1511.1,434.3 L 1500.0,425.2 L 1377.8,434.3 Z"/>
  <path d="M 1722.2,406.1 L 1722.2,399.5 L 1755.6,392.7 L 1777.8,385.7 L 1783.3,374.9 L 1794.4,367.4 L 1805.6,363.6 L 1794.4,363.6 L 1777.8,371.2 L 1777.8,385.7 L 1766.7,392.7 L 1727.8,402.8 L 1722.2,406.1 Z"/>
  <path d="M 1655.6,472.1 L 1677.8,466.4 L 1677.8,455.0 L 1677.8,449.2 L 1672.2,460.7 L 1694.4,472.1 L 1700.0,480.5 L 1700.0,483.3 L 1688.9,477.7 L 1661.1,472.1 L 1655.6,472.1 Z"/>
  <path d="M 1650.0,480.5 L 1661.1,486.1 L 1655.6,494.4 L 1605.6,500.0 L 1633.3,511.1 L 1644.4,513.9 L 1638.9,508.3 L 1605.6,497.2 L 1633.3,488.9 L 1650.0,480.5 Z"/>
  <path d="M 1527.8,483.3 L 1544.4,491.7 L 1583.3,511.1 L 1588.9,513.9 L 1588.9,516.7 L 1572.2,505.6 L 1544.4,491.7 L 1527.8,483.3 Z"/>
  <path d="M 1588.9,516.7 L 1594.4,519.5 L 1622.2,522.3 L 1638.9,525.1 L 1638.9,525.1 L 1611.1,522.3 L 1588.9,516.7 Z"/>
  <path d="M 1755.6,545.0 L 1722.2,542.2 L 1677.8,547.9 L 1633.3,562.7 L 1633.3,574.8 L 1638.9,593.9 L 1650.0,603.9 L 1777.8,603.9 L 1811.1,614.3 L 1816.7,617.8 L 1822.2,614.3 L 1850.0,593.9 L 1850.0,581.1 L 1844.4,568.7 L 1822.2,556.7 L 1811.1,547.9 L 1800.0,539.3 L 1755.6,533.6 L 1755.6,539.3 L 1755.6,545.0 Z"/>
  <path d="M 1966.7,603.9 L 1966.7,607.3 L 1972.2,625.1 L 1988.9,614.3 L 1988.9,610.8 L 1961.1,600.5 L 1966.7,603.9 Z"/>
  <path d="M 1933.3,636.4 L 1933.3,644.2 L 1955.6,636.4 L 1955.6,632.6 L 1933.3,636.4 Z"/>
  <path d="M 1272.2,533.6 L 1272.2,539.3 L 1244.4,550.8 L 1244.4,556.7 L 1244.4,568.7 L 1244.4,574.8 L 1261.1,571.8 L 1277.8,568.7 L 1277.8,550.8 L 1272.2,533.6 Z"/>
  <path d="M 1444.4,483.3 L 1450.0,480.5 L 1450.0,474.9 L 1444.4,472.1 L 1433.3,477.7 L 1444.4,483.3 Z"/>
  <path d="M 1666.7,437.3 L 1677.8,428.2 L 1672.2,428.2 L 1666.7,434.3 L 1666.7,437.3 Z"/>
</g>
</svg>