<svg xmlns="http://www.w3.org/2000/svg" viewBox="0 0 1000 500" width="1000" height="500">
<rect width="1000" height="500" fill="none"/>
<g fill="rgba(63,184,96,0.25)" stroke="rgba(63,184,96,0.6)" stroke-width="0.8" stroke-linejoin="round">
<path d="M 108.3,111.9 L 166.7,107.7 L 202.8,98.7 L 236.1,103.4 L 283.3,103.4 L 333.3,27.6 L 319.4,38.3 L 319.4,83.1 L 333.3,111.9 L 322.2,145.2 L 352.8,175.9 L 316.7,181.8 L 305.6,187.5 L 291.7,198.0 L 275.0,206.3 L 277.8,212.6 L 272.2,215.6 L 250.0,220.2 L 255.6,228.9 L 286.1,238.9 L 280.6,237.4 L 288.9,237.4 L 286.1,240.3 L 269.4,238.9 L 247.2,230.4 L 244.4,228.9 L 238.9,227.5 L 227.8,218.7 L 202.8,215.6 L 194.4,206.3 L 175.0,203.0 L 158.3,192.9 L 155.6,173.8 L 136.1,160.5 L 119.4,150.6 L 108.3,145.2 L 33.3,130.1 L 44.4,107.7 L 108.3,107.7 Z"/>
<path d="M 55.6,158.1 L 83.3,145.2 L 108.3,145.2 L 108.3,133.3 L 41.7,126.8 L 47.2,111.9 L 33.3,145.2 L 55.6,158.1 Z"/>
<path d="M 444.4,88.6 L 430.6,27.6 L 372.2,27.6 L 305.6,83.1 L 311.1,103.4 L 352.8,130.1 L 427.8,119.7 L 444.4,88.6 Z"/>
<path d="M 300.0,233.2 L 327.8,236.0 L 333.3,238.9 L 355.6,244.4 L 361.1,248.6 L 402.8,257.0 L 397.2,264.0 L 391.7,271.1 L 380.6,282.8 L 366.7,290.5 L 352.8,300.3 L 316.7,322.1 L 311.1,339.5 L 305.6,334.8 L 300.0,314.4 L 300.0,300.3 L 366.7,285.9 L 388.9,278.4 L 400.0,264.0 L 402.8,254.2 L 363.9,250.0 L 352.8,243.0 L 327.8,236.0 L 300.0,233.2 Z"/>
<path d="M 483.3,196.3 L 475.0,192.9 L 475.0,185.6 L 494.4,181.8 L 508.3,183.7 L 508.3,187.5 L 500.0,194.6 L 516.7,196.3 L 555.6,189.3 L 566.7,185.6 L 563.9,192.9 L 561.1,194.6 L 561.1,194.6 L 572.2,187.5 L 577.8,185.6 L 577.8,181.8 L 566.7,175.9 L 538.9,177.9 L 527.8,175.9 L 522.2,175.9 L 522.2,173.8 L 513.9,165.2 L 522.2,158.1 L 513.9,150.6 L 513.9,147.9 L 513.9,139.5 L 538.9,130.1 L 561.1,111.9 L 572.2,107.7 L 577.8,107.7 L 583.3,111.9 L 572.2,119.7 L 569.4,130.1 L 569.4,139.5 L 561.1,145.2 L 536.1,150.6 L 527.8,160.5 L 522.2,158.1 L 513.9,162.9 L 505.6,167.4 L 505.6,173.8 L 513.9,177.9 L 522.2,181.8 L 508.3,183.7 Z"/>
<path d="M 513.9,150.6 L 513.9,139.5 L 536.1,130.1 L 555.6,111.9 L 572.2,107.7 L 577.8,111.9 L 550.0,119.7 L 541.7,130.1 L 522.2,139.5 L 519.4,150.6 L 513.9,150.6 Z"/>
<path d="M 500.0,169.6 L 491.7,162.9 L 486.1,158.1 L 488.9,147.9 L 500.0,150.6 L 505.6,158.1 L 505.6,162.9 L 505.6,167.4 L 500.0,169.6 Z"/>
<path d="M 438.9,136.5 L 433.3,130.1 L 436.1,126.8 L 450.0,126.8 L 463.9,133.3 L 461.1,136.5 L 438.9,136.5 Z"/>
<path d="M 527.8,194.6 L 533.3,194.6 L 588.9,201.4 L 591.7,206.3 L 602.8,218.7 L 619.4,234.6 L 641.7,234.6 L 622.2,233.2 L 616.7,245.8 L 611.1,257.0 L 611.1,266.8 L 591.7,287.4 L 569.4,300.3 L 555.6,302.0 L 541.7,293.7 L 541.7,287.4 L 538.9,281.3 L 533.3,275.4 L 533.3,271.1 L 541.7,265.4 L 513.9,258.3 L 491.7,250.0 L 472.2,245.8 L 472.2,244.4 L 491.7,244.4 L 500.0,243.0 L 513.9,243.0 L 541.7,236.0 L 541.7,230.4 L 536.1,228.9 L 513.9,228.9 L 452.8,234.6 L 452.8,230.4 L 455.6,230.4 L 455.6,227.5 L 452.8,221.6 L 458.3,215.6 L 472.2,215.6 L 486.1,218.7 L 513.9,215.6 L 527.8,215.6 L 527.8,206.3 L 527.8,203.0 L 527.8,198.0 L 527.8,194.6 Z"/>
<path d="M 666.7,77.1 L 750.0,70.7 L 805.6,88.6 L 861.1,103.4 L 891.7,111.9 L 991.7,123.3 L 991.7,133.3 L 950.0,145.2 L 888.9,158.1 L 894.4,169.6 L 894.4,179.9 L 872.2,183.7 L 838.9,192.9 L 833.3,201.4 L 833.3,217.2 L 805.6,228.9 L 791.7,236.0 L 791.7,243.0 L 791.7,245.8 L 788.9,248.6 L 791.7,251.4 L 777.8,243.0 L 777.8,236.0 L 777.8,228.9 L 758.3,221.6 L 747.2,214.1 L 752.8,218.7 L 727.8,227.5 L 722.2,233.2 L 716.7,238.9 L 666.7,218.7 L 638.9,209.5 L 622.2,233.2 L 602.8,218.7 L 600.0,203.0 L 600.0,194.6 L 611.1,192.9 L 644.4,185.6 L 666.7,189.3 L 666.7,175.9 L 666.7,165.2 L 666.7,145.2 L 638.9,130.1 L 666.7,111.9 L 666.7,77.1 Z"/>
<path d="M 688.9,217.2 L 686.1,209.5 L 705.6,203.0 L 711.1,199.7 L 752.8,218.7 L 727.8,227.5 L 716.7,238.9 L 719.4,237.4 L 722.2,231.8 L 744.4,218.7 L 755.6,217.2 L 750.0,212.6 L 688.9,217.2 Z"/>
<path d="M 861.1,203.0 L 861.1,199.7 L 877.8,196.3 L 888.9,192.9 L 891.7,187.5 L 897.2,183.7 L 902.8,181.8 L 897.2,181.8 L 888.9,185.6 L 888.9,192.9 L 883.3,196.3 L 863.9,201.4 L 861.1,203.0 Z"/>
<path d="M 763.9,241.7 L 772.2,245.8 L 791.7,255.6 L 819.4,261.1 L 819.4,262.6 L 805.6,261.1 L 794.4,258.3 L 783.3,251.4 L 772.2,245.8 L 763.9,241.7 Z"/>
<path d="M 877.8,272.5 L 861.1,271.1 L 838.9,274.0 L 816.7,281.3 L 816.7,287.4 L 819.4,297.0 L 825.0,302.0 L 888.9,302.0 L 905.6,307.1 L 908.3,308.9 L 911.1,307.1 L 925.0,297.0 L 925.0,290.5 L 922.2,284.4 L 911.1,278.4 L 908.3,275.4 L 902.8,269.6 L 877.8,266.8 L 877.8,271.1 L 877.8,272.5 Z"/>
<path d="M 983.3,302.0 L 983.3,303.7 L 986.1,312.5 L 966.7,318.2 L 966.7,322.1 L 977.8,318.2 L 983.3,312.5 L 986.1,303.7 L 983.3,302.0 Z"/>
<path d="M 636.1,266.8 L 636.1,269.6 L 622.2,275.4 L 622.2,278.4 L 622.2,284.4 L 622.2,287.4 L 630.6,285.9 L 638.9,284.4 L 638.9,275.4 L 636.1,266.8 Z"/>
</g>
</svg>